<?xml version="1.0" standalone="no"?>
<!DOCTYPE svg PUBLIC "-//W3C//DTD SVG 20010904//EN"
 "http://www.w3.org/TR/2001/REC-SVG-20010904/DTD/svg10.dtd">
<svg version="1.0" xmlns="http://www.w3.org/2000/svg"
 width="700.000000pt" height="700.000000pt" viewBox="0 0 700.000000 700.000000"
 preserveAspectRatio="xMidYMid meet">
<metadata>
Created by potrace 1.14, written by Peter Selinger 2001-2017
</metadata>
<g transform="translate(0.000000,700.000000) scale(0.100000,-0.100000)"
fill="#000000" stroke="none">
<path d="M3375 6330 c-60 -21 -216 -75 -345 -120 -597 -209 -705 -246 -1035
-360 -77 -27 -174 -61 -215 -75 -41 -15 -151 -53 -245 -85 -93 -32 -300 -104
-460 -160 -159 -56 -317 -110 -350 -122 -33 -11 -68 -29 -77 -40 -17 -19 -18
-123 -18 -1872 0 -1018 4 -1856 8 -1863 9 -14 69 -38 256 -102 170 -59 531
-185 791 -275 105 -37 244 -85 310 -107 66 -22 129 -45 140 -50 11 -4 79 -28
150 -53 146 -50 563 -194 670 -232 39 -14 75 -26 80 -28 6 -2 17 -6 25 -9 20
-8 263 -92 363 -125 l78 -27 207 72 c114 39 311 107 437 151 127 44 304 106
395 137 91 31 188 65 215 75 28 10 95 34 150 53 192 67 401 139 480 167 44 16
168 58 275 95 107 36 204 70 215 75 11 5 61 22 110 39 199 65 350 122 367 138
17 15 18 90 18 1868 0 1750 -1 1854 -17 1873 -11 13 -77 41 -168 72 -82 28
-159 55 -170 60 -18 8 -85 30 -110 36 -9 3 -213 75 -245 87 -8 3 -73 26 -145
50 -153 53 -583 202 -740 257 -235 82 -557 194 -695 242 -144 50 -229 79 -452
157 -64 23 -122 41 -130 40 -7 0 -62 -18 -123 -39z"/>
</g>
</svg>
