<?xml version="1.0" encoding="UTF-8" standalone="no"?>
<!-- Created with Inkscape (http://www.inkscape.org/) -->

<svg
   width="135.46666mm"
   height="35.802544mm"
   viewBox="0 0 135.46666 35.802544"
   version="1.1"
   id="svg5"
   inkscape:version="1.2.1 (9c6d41e410, 2022-07-14)"
   sodipodi:docname="stash-text.svg"
   xmlns:inkscape="http://www.inkscape.org/namespaces/inkscape"
   xmlns:sodipodi="http://sodipodi.sourceforge.net/DTD/sodipodi-0.dtd"
   xmlns="http://www.w3.org/2000/svg"
   xmlns:svg="http://www.w3.org/2000/svg">
  <sodipodi:namedview
     id="namedview7"
     pagecolor="#ffffff"
     bordercolor="#666666"
     borderopacity="1.0"
     inkscape:showpageshadow="2"
     inkscape:pageopacity="0.0"
     inkscape:pagecheckerboard="0"
     inkscape:deskcolor="#d1d1d1"
     inkscape:document-units="mm"
     showgrid="false"
     inkscape:zoom="1.3056256"
     inkscape:cx="89.229257"
     inkscape:cy="225.94533"
     inkscape:window-width="1920"
     inkscape:window-height="1017"
     inkscape:window-x="-8"
     inkscape:window-y="-8"
     inkscape:window-maximized="1"
     inkscape:current-layer="layer1" />
  <defs
     id="defs2" />
  <g
     inkscape:label="Layer 1"
     inkscape:groupmode="layer"
     id="layer1"
     transform="translate(-15.650527,-98.213485)">
    <g
       id="g420"
       transform="matrix(4.7513143,0,0,4.7513143,-58.71005,-368.42966)"
       style="fill:#ffffff">
      <path
         d="m 18.063516,98.933131 q -1.587495,0 -1.587495,1.195909 0,0.66675 0.359833,0.92075 0.370415,0.24342 1.481662,0.49742 1.121829,0.24341 1.587495,0.64558 0.465665,0.39158 0.465665,1.30174 0,2.25425 -2.33891,2.25425 -0.77258,0 -1.936743,-0.17992 l -0.380999,-0.0529 0.08467,-0.67733 q 1.439329,0.1905 2.190743,0.1905 1.566329,0 1.566329,-1.47108 0,-0.59266 -0.349249,-0.84666 -0.338666,-0.26458 -1.28058,-0.4445 -1.238246,-0.26458 -1.756827,-0.67733 -0.518582,-0.42333 -0.518582,-1.40758 0,-1.968493 2.360076,-1.968493 0.772581,0 1.852077,0.158749 l 0.359832,0.05292 -0.07408,0.687914 q -1.471078,-0.179916 -2.08491,-0.179916 z"
         style="font-size:10.5833px;-inkscape-font-specification:'Titillium Web';stroke-width:0.264583;fill:#ffffff"
         id="path288" />
      <path
         d="m 21.016255,99.060131 v -0.730248 h 5.29165 v 0.730248 h -2.233076 v 6.593399 h -0.804331 v -6.593399 z"
         style="font-size:10.5833px;-inkscape-font-specification:'Titillium Web';stroke-width:0.264583;fill:#ffffff"
         id="path290" />
      <path
         d="M 26.202073,105.65353 28.2129,98.329883 h 1.777994 l 2.010827,7.323647 H 31.19739 l -0.529165,-1.88383 h -3.132657 l -0.529165,1.88383 z m 2.624658,-6.625149 -1.111247,4.011069 h 2.772825 l -1.111247,-4.011069 z"
         style="font-size:10.5833px;-inkscape-font-specification:'Titillium Web';stroke-width:0.264583;fill:#ffffff"
         id="path292" />
      <path
         d="m 35.102636,98.933131 q -1.587495,0 -1.587495,1.195909 0,0.66675 0.359832,0.92075 0.370416,0.24342 1.481662,0.49742 1.12183,0.24341 1.587495,0.64558 0.465665,0.39158 0.465665,1.30174 0,2.25425 -2.338909,2.25425 -0.772581,0 -1.936744,-0.17992 l -0.380998,-0.0529 0.08467,-0.67733 q 1.439329,0.1905 2.190743,0.1905 1.566328,0 1.566328,-1.47108 0,-0.59266 -0.349249,-0.84666 -0.338665,-0.26458 -1.280579,-0.4445 -1.238246,-0.26458 -1.756828,-0.67733 -0.518581,-0.42333 -0.518581,-1.40758 0,-1.968493 2.360076,-1.968493 0.77258,0 1.852077,0.158749 l 0.359832,0.05292 -0.07408,0.687914 q -1.471079,-0.179916 -2.08491,-0.179916 z"
         style="font-size:10.5833px;-inkscape-font-specification:'Titillium Web';stroke-width:0.264583;fill:#ffffff"
         id="path294" />
      <path
         d="m 43.357606,105.65353 v -3.31258 h -3.725321 v 3.31258 h -0.814914 v -7.323647 h 0.814914 v 3.280827 h 3.725321 v -3.280827 h 0.804331 v 7.323647 z"
         style="font-size:10.5833px;-inkscape-font-specification:'Titillium Web';stroke-width:0.264583;fill:#ffffff"
         id="path296" />
    </g>
  </g>
</svg>
