<?xml version="1.0" encoding="UTF-8" standalone="no"?>
<!-- Created with Inkscape (http://www.inkscape.org/) -->

<svg
   width="1111.9872"
   height="512"
   viewBox="0 0 1111.9872 512"
   version="1.1"
   id="svg5"
   xml:space="preserve"
   sodipodi:docname="stash-w-text-shapes.svg"
   inkscape:version="1.4 (86a8ad7, 2024-10-11)"
   xmlns:inkscape="http://www.inkscape.org/namespaces/inkscape"
   xmlns:sodipodi="http://sodipodi.sourceforge.net/DTD/sodipodi-0.dtd"
   xmlns="http://www.w3.org/2000/svg"
   xmlns:svg="http://www.w3.org/2000/svg"><sodipodi:namedview
     id="namedview1"
     pagecolor="#ffffff"
     bordercolor="#000000"
     borderopacity="0.25"
     inkscape:showpageshadow="2"
     inkscape:pageopacity="0.0"
     inkscape:pagecheckerboard="0"
     inkscape:deskcolor="#d1d1d1"
     showgrid="true"
     inkscape:zoom="0.40292657"
     inkscape:cx="35.986706"
     inkscape:cy="268.03891"
     inkscape:window-width="1718"
     inkscape:window-height="1360"
     inkscape:window-x="-7"
     inkscape:window-y="0"
     inkscape:window-maximized="0"
     inkscape:current-layer="svg5"><inkscape:grid
       id="grid5"
       units="px"
       originx="0"
       originy="0"
       spacingx="1"
       spacingy="1"
       empcolor="#0099e5"
       empopacity="0.30196078"
       color="#0099e5"
       opacity="0.14901961"
       empspacing="5"
       enabled="true"
       visible="true" /></sodipodi:namedview><defs
     id="defs2" /><g
     id="layer1"><g
       id="g7309"
       transform="matrix(1.1170213,0,0,1.1170213,-29.957453,-29.867948)"><path
         style="fill:#ffcb81;fill-opacity:1;stroke:none;stroke-width:1px;stroke-linecap:butt;stroke-linejoin:miter;stroke-opacity:1"
         d="M 72,136 256,72 440,136 256,200 Z"
         id="path2600" /><path
         style="fill:#ffcc81;fill-opacity:1;stroke:none;stroke-width:1px;stroke-linecap:butt;stroke-linejoin:miter;stroke-opacity:1"
         d="M 440,136 256,200 V 440 L 440,376 Z"
         id="path2046" /><path
         style="fill:#c8cbcd;fill-opacity:1;stroke:none;stroke-width:1px;stroke-linecap:butt;stroke-linejoin:miter;stroke-opacity:1"
         d="m 140,112 180,64 v 68 l 56,-20 V 158 L 192,94 Z"
         id="path4467" /><path
         style="fill:#c8cbcd;fill-opacity:1;stroke:none;stroke-width:1px;stroke-linecap:butt;stroke-linejoin:miter;stroke-opacity:1"
         d="m 280,366 56,-20 v 40 l -56,20 z"
         id="path3430" /><path
         style="fill:#ffe083;fill-opacity:1;stroke:none;stroke-width:1px;stroke-linecap:butt;stroke-linejoin:miter;stroke-opacity:1"
         d="m 72,136 184,64 V 440 L 72,376 Z"
         id="path1078" /><path
         id="path367"
         style="color:#000000;fill:#3f494b;fill-opacity:1;stroke-linecap:round;stroke-linejoin:round"
         d="M 254.68555,68.222656 70.685547,132.22266 a 4.0004,4.0004 0 0 0 -0.232422,0.21679 4.0004,4.0004 0 0 0 -1.841797,1.70508 4.0004,4.0004 0 0 0 -0.27539,0.83594 A 4.0004,4.0004 0 0 0 68,136 v 240 a 4.0004,4.0004 0 0 0 2.685547,3.77734 l 184.000003,64 a 4.0004,4.0004 0 0 0 0.0723,0.002 4.0004,4.0004 0 0 0 1.24219,0.0215 4.0004,4.0004 0 0 0 1.24219,-0.0215 4.0004,4.0004 0 0 0 0.0723,-0.002 l 184,-64 A 4.0004,4.0004 0 0 0 444,376 V 136 a 4.0004,4.0004 0 0 0 -0.12305,-0.37305 4.0004,4.0004 0 0 0 -0.51172,-1.55664 4.0004,4.0004 0 0 0 -0.29687,-0.55078 4.0004,4.0004 0 0 0 -1.75391,-1.29687 l -184,-64.000004 a 4.0004,4.0004 0 0 0 -2.6289,0 z M 256,76.234375 427.82617,136 256,195.76562 84.173828,136 Z M 76,141.625 l 110,38.26172 66,22.95703 V 434.375 L 76,373.15625 Z m 360,0 V 373.15625 L 260,434.375 V 202.84375 l 66,-22.95703 z" /><path
         style="fill:none;stroke:#3f494b;stroke-width:8;stroke-linecap:butt;stroke-linejoin:round;stroke-dasharray:none;stroke-opacity:1"
         d="m 140,112 184,64"
         id="path940" /><path
         style="fill:none;stroke:#3f494b;stroke-width:8;stroke-linecap:butt;stroke-linejoin:round;stroke-dasharray:none;stroke-opacity:1"
         d="m 192,94 184,64"
         id="path940-4" /><path
         style="fill:none;stroke:#3f494b;stroke-width:8;stroke-linecap:butt;stroke-linejoin:round;stroke-dasharray:none;stroke-opacity:1"
         d="m 320,176 v 68 l 56,-20 v -64"
         id="path964" /><path
         style="fill:none;stroke:#3f494b;stroke-width:8;stroke-linecap:round;stroke-linejoin:round;stroke-dasharray:none;stroke-opacity:1"
         d="m 280,366 56,-20 v 40 l -56,20 z"
         id="path1072" /><path
         style="fill:none;stroke:#3f494b;stroke-width:8;stroke-linecap:round;stroke-linejoin:miter;stroke-dasharray:none;stroke-opacity:1"
         d="M 128,358.81875 98,348"
         id="path1074" /></g></g><g
     id="g7"
     transform="translate(0,-2.3220578)"><g
       id="text1"
       style="font-size:76.9911px;line-height:1.2;font-family:Dubai;-inkscape-font-specification:Dubai;text-align:center;letter-spacing:0px;text-anchor:middle;fill:#5a7072;stroke-width:3;stroke-linecap:round;stroke-linejoin:round;stroke-miterlimit:20"
       aria-label="Seed Transfer and&#10;Storage Hub"><path
         style="text-align:start;text-anchor:start;stroke-width:2.97697"
         d="m 529.31427,318.69382 q -5.38938,0 -9.93185,-1.46283 -4.54247,-1.53982 -8.00707,-4.23451 l 3.3876,-5.08141 q 3.07965,2.38672 6.9292,3.61858 3.92655,1.15487 7.39115,1.15487 5.54336,0 8.39203,-2.00177 2.92566,-2.00177 2.92566,-6.0823 0,-2.38672 -1.07788,-3.92655 -1.00088,-1.53982 -3.3876,-2.77167 -2.30974,-1.30885 -6.69823,-2.84868 l -1.30885,-0.46194 q -4.85044,-1.69381 -7.85309,-3.31062 -3.00265,-1.6938 -4.85044,-4.38849 -1.84779,-2.69469 -1.84779,-6.77522 0,-4.3115 2.30974,-7.23716 2.38672,-3.00265 6.23628,-4.46548 3.84955,-1.46284 8.23804,-1.46284 4.61947,0 8.7,1.15487 4.15752,1.15487 8.08406,3.77256 l -3.23362,5.08142 q -3.38761,-2.15575 -6.54425,-3.07965 -3.15663,-1.00088 -7.08318,-1.00088 -4.08053,0 -6.77521,1.6938 -2.69469,1.69381 -2.69469,5.2354 0,1.84778 0.8469,3.23362 0.92389,1.38584 3.07964,2.6177 2.23274,1.23186 6.15929,2.6177 l 1.30885,0.46194 q 5.1584,1.7708 8.23805,3.38761 3.07964,1.53982 5.31238,4.54248 2.23274,2.92566 2.23274,7.62212 0,4.69645 -2.23274,7.93008 -2.23274,3.15663 -6.39026,4.85044 -4.15752,1.61681 -9.85486,1.61681 z m 54.81769,-16.63008 h -23.48229 q 0.077,5.77434 2.77168,8.39203 2.77168,2.6177 7.08318,2.6177 3.07965,0 5.31239,-0.76991 2.30973,-0.76991 5.08141,-2.38672 l 2.54071,4.69645 q -6.31327,4.08053 -13.24247,4.08053 -7.39115,0 -11.85663,-4.08053 -4.38849,-4.15752 -4.38849,-13.08848 0,-5.08142 1.84778,-9.23893 1.84779,-4.15752 5.46637,-6.62124 3.69557,-2.54071 9.00796,-2.54071 4.46548,0 7.62212,1.84779 3.15663,1.7708 4.77345,4.92743 1.61681,3.15664 1.61681,7.23716 z m -13.8584,-13.7814 q -4.00354,0 -6.31327,2.38672 -2.23274,2.38673 -2.92566,6.54425 h 16.78406 v -0.30797 q 0,-4.3115 -2.00177,-6.46725 -1.92478,-2.15575 -5.54336,-2.15575 z m 49.58232,13.7814 H 596.3736 q 0.077,5.77434 2.77168,8.39203 2.77168,2.6177 7.08318,2.6177 3.07964,0 5.31238,-0.76991 2.30974,-0.76991 5.08141,-2.38672 l 2.54071,4.69645 q -6.31327,4.08053 -13.24247,4.08053 -7.39114,0 -11.85663,-4.08053 -4.38849,-4.15752 -4.38849,-13.08848 0,-5.08142 1.84779,-9.23893 1.84778,-4.15752 5.46636,-6.62124 3.69558,-2.54071 9.00796,-2.54071 4.46549,0 7.62212,1.84779 3.15664,1.7708 4.77345,4.92743 1.61681,3.15664 1.61681,7.23716 z m -13.8584,-13.7814 q -4.00353,0 -6.31327,2.38672 -2.23274,2.38673 -2.92566,6.54425 h 16.78406 v -0.30797 q 0,-4.3115 -2.00177,-6.46725 -1.92478,-2.15575 -5.54336,-2.15575 z m 50.73719,-24.2522 v 53.73979 h -6.00531 l -0.30796,-2.46372 q -2.77168,1.61682 -5.62035,2.46372 -2.84867,0.92389 -5.31239,0.92389 -4.46548,0 -7.62211,-2.00177 -3.15664,-2.07876 -4.85044,-5.85132 -1.61682,-3.84956 -1.61682,-9.00796 0,-5.85132 2.23275,-10.08583 2.30973,-4.23451 6.23627,-6.39026 3.92655,-2.23275 8.93097,-2.23275 3.31062,0 7.31416,1.00089 v -19.32477 z m -24.2522,37.64865 q 0,5.77433 2.30974,8.54601 2.30973,2.77168 6.54424,2.77168 4.46548,0 8.77699,-2.54071 V 289.5142 q -3.4646,-1.15487 -6.77522,-1.15487 -3.15664,0 -5.62035,1.46283 -2.38673,1.38584 -3.84956,4.38849 -1.38584,3.00266 -1.38584,7.46814 z m 91.23432,-33.79909 v 6.15929 h -17.246 v 43.73094 h -7.08318 v -43.73094 h -17.323 v -6.15929 z m 16.32208,15.24423 q 1.30885,0 2.38673,0.15399 1.07787,0.15398 2.30973,0.46194 l -1.23186,6.85221 q -2.6177,-0.92389 -4.77345,-0.92389 -2.46371,0 -4.54247,1.07787 -2.07876,1.07788 -4.00354,4.08053 v 22.94335 h -6.62123 v -33.79909 l 6.62123,-0.69292 v 4.85044 q 1.92478,-2.46372 4.46549,-3.69558 2.5407,-1.30885 5.38937,-1.30885 z m 23.86733,0 q 5.92831,0 8.85397,2.69469 3.00265,2.69469 3.00265,8.46902 v 23.48229 h -6.0053 l -0.38496,-2.92566 q -5.31238,3.84955 -12.24158,3.84955 -2.92566,0 -5.2354,-1.07787 -2.30973,-1.15487 -3.61858,-3.15664 -1.23185,-2.07876 -1.23185,-4.69646 0,-4.23451 3.00265,-7.00619 3.00265,-2.84867 8.00707,-4.15752 5.00442,-1.30884 11.08672,-1.46283 v -1.6938 q 0,-3.4646 -1.38584,-5.00442 -1.38584,-1.61681 -4.69646,-1.61681 -5.62035,0 -11.70264,4.00353 l -2.92566,-4.61946 q 7.39114,-5.08142 15.47521,-5.08142 z m -9.77787,25.946 q 0,2.00177 1.15486,3.00266 1.23186,1.00088 3.61858,1.00088 5.2354,0 10.23982,-3.07964 v -8.00708 q -6.69823,0.30797 -10.85574,2.07876 -4.15752,1.7708 -4.15752,5.00442 z m 50.96813,-25.946 q 10.31681,0 10.31681,10.70177 v 23.94423 h -6.62124 v -21.48052 q 0,-2.84867 -0.61593,-4.38849 -0.53893,-1.61681 -1.92477,-2.30973 -1.30885,-0.69292 -3.61859,-0.69292 -2.30973,0 -4.92743,0.69292 -2.61769,0.61593 -4.92743,1.6938 v 26.48494 h -6.62123 v -33.7221 l 6.62123,-0.76991 v 3.23362 q 6.46726,-3.38761 12.31858,-3.38761 z m 31.72031,35.56989 q -4.54248,0 -8.16106,-1.07787 -3.61858,-1.15487 -6.69822,-3.4646 l 2.92566,-4.69646 q 5.62035,4.00354 11.70264,4.00354 3.4646,0 5.31239,-1.15487 1.84779,-1.23186 1.84779,-3.54159 0,-1.84779 -1.69381,-3.15664 -1.61681,-1.38584 -5.77433,-2.46371 l -2.38672,-0.61593 q -5.38938,-1.38584 -7.93009,-3.61858 -2.46371,-2.30973 -2.46371,-6.0823 0,-2.84867 1.61681,-5.00442 1.61681,-2.23274 4.46548,-3.4646 2.92567,-1.23186 6.54425,-1.23186 3.4646,0 6.62123,0.84691 3.23363,0.76991 6.54424,2.69468 l -2.69468,4.69646 q -3.15664,-1.6938 -5.46637,-2.30973 -2.30973,-0.69292 -4.92743,-0.69292 -2.77168,0 -4.38849,1.15487 -1.53983,1.07787 -1.53983,2.92566 0,1.61681 1.23186,2.5407 1.30885,0.84691 4.46549,1.69381 l 2.38672,0.61593 q 4.38849,1.15486 7.00619,2.61769 2.69469,1.46283 3.92654,3.54159 1.23186,2.00177 1.23186,4.85044 0,3.07965 -1.61681,5.46637 -1.53982,2.30973 -4.61947,3.61858 -3.07964,1.30885 -7.46813,1.30885 z m 36.10878,-48.81235 q -2.92566,0 -4.38849,1.92477 -1.38584,1.84779 -1.38584,5.31239 v 6.9292 H 877.622 l -0.69292,5.23539 h -9.77786 v 28.48671 h -6.62124 v -28.48671 h -6.15929 v -5.23539 h 6.15929 v -6.77522 q 0,-3.84955 1.46283,-6.77522 1.46283,-2.92566 4.15752,-4.54247 2.77168,-1.61681 6.46725,-1.61681 4.23451,0 7.7761,1.30885 l -1.6938,5.23539 q -2.84867,-1.00088 -5.77433,-1.00088 z m 36.49381,32.18227 h -23.48229 q 0.077,5.77434 2.77168,8.39203 2.77168,2.6177 7.08318,2.6177 3.07965,0 5.31239,-0.76991 2.30973,-0.76991 5.08141,-2.38672 l 2.54071,4.69645 q -6.31327,4.08053 -13.24247,4.08053 -7.39115,0 -11.85663,-4.08053 -4.38849,-4.15752 -4.38849,-13.08848 0,-5.08142 1.84778,-9.23893 1.84779,-4.15752 5.46637,-6.62124 3.69557,-2.54071 9.00796,-2.54071 4.46548,0 7.62212,1.84779 3.15663,1.7708 4.77345,4.92743 1.61681,3.15664 1.61681,7.23716 z m -13.8584,-13.7814 q -4.00354,0 -6.31327,2.38672 -2.23274,2.38673 -2.92566,6.54425 h 16.78406 v -0.30797 q 0,-4.3115 -2.00177,-6.46725 -1.92478,-2.15575 -5.54336,-2.15575 z m 38.57261,-5.15841 q 1.30885,0 2.38672,0.15399 1.07788,0.15398 2.30974,0.46194 l -1.23186,6.85221 q -2.6177,-0.92389 -4.77345,-0.92389 -2.46372,0 -4.54248,1.07787 -2.07875,1.07788 -4.00353,4.08053 v 22.94335 h -6.62124 v -33.79909 l 6.62124,-0.69292 v 4.85044 q 1.92478,-2.46372 4.46548,-3.69558 2.54071,-1.30885 5.38938,-1.30885 z m 43.49998,0 q 5.92832,0 8.85398,2.69469 3.00265,2.69469 3.00265,8.46902 v 23.48229 h -6.00531 l -0.38495,-2.92566 q -5.31239,3.84955 -12.24158,3.84955 -2.92567,0 -5.2354,-1.07787 -2.30973,-1.15487 -3.61858,-3.15664 -1.23186,-2.07876 -1.23186,-4.69646 0,-4.23451 3.00265,-7.00619 3.00266,-2.84867 8.00708,-4.15752 5.00442,-1.30884 11.08672,-1.46283 v -1.6938 q 0,-3.4646 -1.38584,-5.00442 -1.38584,-1.61681 -4.69646,-1.61681 -5.62035,0 -11.70265,4.00353 l -2.92566,-4.61946 q 7.39115,-5.08142 15.47521,-5.08142 z m -9.77787,25.946 q 0,2.00177 1.15487,3.00266 1.23186,1.00088 3.61858,1.00088 5.23539,0 10.23982,-3.07964 v -8.00708 q -6.69823,0.30797 -10.85575,2.07876 -4.15752,1.7708 -4.15752,5.00442 z m 50.96812,-25.946 q 10.3168,0 10.3168,10.70177 v 23.94423 h -6.6212 v -21.48052 q 0,-2.84867 -0.6159,-4.38849 -0.539,-1.61681 -1.9248,-2.30973 -1.3089,-0.69292 -3.6186,-0.69292 -2.3097,0 -4.9274,0.69292 -2.6177,0.61593 -4.9275,1.6938 v 26.48494 h -6.62119 v -33.7221 l 6.62119,-0.76991 v 3.23362 q 6.4673,-3.38761 12.3186,-3.38761 z m 49.3513,-19.09379 v 53.73979 h -6.0053 l -0.308,-2.46372 q -2.7717,1.61682 -5.6203,2.46372 -2.8487,0.92389 -5.3124,0.92389 -4.4655,0 -7.6221,-2.00177 -3.1567,-2.07876 -4.8505,-5.85132 -1.6168,-3.84956 -1.6168,-9.00796 0,-5.85132 2.2327,-10.08583 2.3098,-4.23451 6.2363,-6.39026 3.9266,-2.23275 8.931,-2.23275 3.3106,0 7.3141,1.00089 v -19.32477 z m -24.2522,37.64865 q 0,5.77433 2.3097,8.54601 2.3098,2.77168 6.5443,2.77168 4.4654,0 8.7769,-2.54071 V 289.5142 q -3.4645,-1.15487 -6.7752,-1.15487 -3.1566,0 -5.6203,1.46283 -2.3867,1.38584 -3.8496,4.38849 -1.3858,3.00266 -1.3858,7.46814 z"
         id="path7" /><path
         style="text-align:start;text-anchor:start;stroke-width:2.97697"
         d="m 529.31427,411.08314 q -5.38938,0 -9.93185,-1.46283 -4.54247,-1.53982 -8.00707,-4.23451 l 3.3876,-5.08141 q 3.07965,2.38672 6.9292,3.61858 3.92655,1.15487 7.39115,1.15487 5.54336,0 8.39203,-2.00177 2.92566,-2.00177 2.92566,-6.0823 0,-2.38672 -1.07788,-3.92655 -1.00088,-1.53982 -3.3876,-2.77168 -2.30974,-1.30884 -6.69823,-2.84867 l -1.30885,-0.46194 q -4.85044,-1.69381 -7.85309,-3.31062 -3.00265,-1.6938 -4.85044,-4.38849 -1.84779,-2.69469 -1.84779,-6.77522 0,-4.3115 2.30974,-7.23716 2.38672,-3.00265 6.23628,-4.46549 3.84955,-1.46283 8.23804,-1.46283 4.61947,0 8.7,1.15487 4.15752,1.15487 8.08406,3.77256 l -3.23362,5.08142 q -3.38761,-2.15575 -6.54425,-3.07965 -3.15663,-1.00088 -7.08318,-1.00088 -4.08053,0 -6.77521,1.6938 -2.69469,1.69381 -2.69469,5.2354 0,1.84778 0.8469,3.23362 0.92389,1.38584 3.07964,2.6177 2.23274,1.23186 6.15929,2.6177 l 1.30885,0.46194 q 5.1584,1.7708 8.23805,3.38761 3.07964,1.53982 5.31238,4.54248 2.23274,2.92566 2.23274,7.62212 0,4.69645 -2.23274,7.93008 -2.23274,3.15663 -6.39026,4.85044 -4.15752,1.61681 -9.85486,1.61681 z m 47.50358,-2.15575 q -4.00354,2.15575 -8.46902,2.15575 -4.77345,0 -7.54513,-2.69469 -2.77168,-2.77168 -2.77168,-8.23805 v -18.47786 h -6.77521 v -5.23539 h 6.77521 v -7.62212 l 6.62124,-1.07788 v 8.7 h 11.39468 l -0.69292,5.23539 h -10.70176 v 17.39999 q 0,6.46725 4.77345,6.46725 1.38584,0 2.69468,-0.30796 1.30885,-0.30797 2.84867,-1.00089 z m 19.24772,2.15575 q -5.38938,0 -9.00796,-2.30973 -3.61858,-2.38673 -5.38938,-6.39026 -1.77079,-4.08053 -1.77079,-9.16194 0,-6.15929 2.30973,-10.08584 2.30974,-4.00353 6.23628,-5.77433 3.92655,-1.84779 8.93097,-1.84779 5.38938,0 9.00796,2.38673 3.61858,2.30973 5.38937,6.31327 1.7708,4.00353 1.7708,9.08495 0,6.23628 -2.30973,10.23981 -2.30974,3.92655 -6.23628,5.77434 -3.92655,1.77079 -8.93097,1.77079 z m 0.61593,-5.38938 q 9.93185,0 9.93185,-12.47255 0,-5.62035 -2.46372,-8.93097 -2.38672,-3.38761 -7.23716,-3.38761 -5.38937,0 -7.7761,3.31062 -2.30973,3.23362 -2.30973,9.00796 0,5.69734 2.46371,9.08495 2.46372,3.3876 7.39115,3.3876 z m 41.42121,-30.18051 q 1.30885,0 2.38672,0.15399 1.07788,0.15398 2.30973,0.46194 l -1.23185,6.85221 q -2.6177,-0.92389 -4.77345,-0.92389 -2.46372,0 -4.54248,1.07787 -2.07876,1.07788 -4.00353,4.08053 v 22.94335 h -6.62124 v -33.79909 l 6.62124,-0.69292 v 4.85044 q 1.92477,-2.46372 4.46548,-3.69558 2.54071,-1.30885 5.38938,-1.30885 z m 23.86733,0 q 5.92831,0 8.85397,2.69469 3.00266,2.69469 3.00266,8.46902 v 23.48229 h -6.00531 l -0.38495,-2.92566 q -5.31239,3.84955 -12.24159,3.84955 -2.92566,0 -5.23539,-1.07787 -2.30974,-1.15487 -3.61858,-3.15664 -1.23186,-2.07876 -1.23186,-4.69646 0,-4.23451 3.00265,-7.00619 3.00265,-2.84867 8.00708,-4.15752 5.00442,-1.30884 11.08671,-1.46283 v -1.6938 q 0,-3.4646 -1.38584,-5.00442 -1.38584,-1.61681 -4.69645,-1.61681 -5.62035,0 -11.70265,4.00353 l -2.92566,-4.61946 q 7.39114,-5.08142 15.47521,-5.08142 z m -9.77787,25.946 q 0,2.00177 1.15487,3.00266 1.23185,1.00088 3.61858,1.00088 5.23539,0 10.23981,-3.07964 v -8.00708 q -6.69822,0.30797 -10.85574,2.07876 -4.15752,1.7708 -4.15752,5.00442 z m 50.96813,3.23363 q 4.54248,0.38496 7.39115,1.38584 2.92566,1.00088 4.38849,2.84867 1.46283,1.84779 1.46283,4.77345 0,3.54159 -2.30973,6.15929 -2.23274,2.69468 -6.46725,4.08052 -4.23451,1.46283 -10.08584,1.46283 -7.46813,0 -11.93362,-2.38672 -4.46548,-2.38672 -4.46548,-7.16017 0,-2.92566 1.38584,-4.85044 1.46283,-1.92478 4.15752,-3.61858 -2.30974,-1.61682 -2.30974,-4.15752 0,-1.53982 0.84691,-2.84867 0.92389,-1.30885 2.84867,-2.69469 -2.77168,-1.53982 -4.15752,-4.08053 -1.38584,-2.5407 -1.38584,-5.85132 0,-4.23451 2.07876,-7.00619 2.15575,-2.77168 5.62035,-4.00354 3.4646,-1.23186 7.69911,-1.23186 2.15575,0 4.46548,0.38496 l 11.47167,-4.77345 2.30974,5.38938 -7.85309,2.23274 q 2.23274,1.6938 3.31061,4.08053 1.07788,2.30973 1.07788,5.00442 0,6.23628 -4.38849,9.08495 -4.31151,2.84867 -11.00973,2.84867 -3.00265,0 -5.1584,-0.53894 -1.00089,1.07788 -1.00089,2.38673 0,0.8469 0.61593,1.38584 0.61593,0.46194 2.00177,0.76991 1.38584,0.23097 3.92654,0.46194 z m -5.54336,-24.2522 q -4.38849,0 -6.46725,2.00177 -2.00177,2.00177 -2.00177,5.2354 0,3.31061 2.07876,5.23539 2.07876,1.92478 6.54425,1.92478 8.31503,0 8.31503,-6.9292 0,-3.4646 -2.23274,-5.46637 -2.15575,-2.00177 -6.23628,-2.00177 z m 0.077,39.8044 q 5.00443,0 8.31504,-1.30885 3.38761,-1.30885 3.38761,-4.3115 0,-1.38584 -0.92389,-2.30973 -0.9239,-0.8469 -2.84867,-1.38584 -1.92478,-0.46195 -5.08142,-0.76991 l -5.46636,-0.46195 q -2.46372,-0.23097 -4.54248,-0.69292 -1.46283,1.30885 -2.30973,2.77168 -0.76991,1.53982 -0.76991,3.07964 0,2.69469 2.46371,4.00354 2.46372,1.38584 7.7761,1.38584 z m 52.35389,-25.79202 h -23.48228 q 0.077,5.77434 2.77168,8.39203 2.77168,2.6177 7.08318,2.6177 3.07964,0 5.31238,-0.76991 2.30974,-0.76991 5.08141,-2.38672 l 2.54071,4.69645 q -6.31327,4.08053 -13.24247,4.08053 -7.39114,0 -11.85663,-4.08053 -4.38849,-4.15752 -4.38849,-13.08848 0,-5.08142 1.84779,-9.23894 1.84778,-4.15751 5.46637,-6.62123 3.69557,-2.54071 9.00795,-2.54071 4.46549,0 7.62212,1.84779 3.15664,1.7708 4.77345,4.92743 1.61681,3.15664 1.61681,7.23716 z m -13.8584,-13.7814 q -4.00353,0 -6.31327,2.38672 -2.23274,2.38673 -2.92566,6.54424 h 16.78406 v -0.30796 q 0,-4.3115 -2.00177,-6.46725 -1.92477,-2.15575 -5.54336,-2.15575 z m 76.14423,-20.40264 h 7.08318 v 49.89023 h -7.08318 v -22.40441 h -27.56281 v 22.40441 h -7.08318 v -49.89023 h 7.08318 v 21.48051 h 27.56281 z m 47.3495,15.39822 v 34.49201 h -5.92832 l -0.38495,-2.54071 q -5.92832,3.4646 -12.01062,3.4646 -4.69645,0 -7.69911,-2.6177 -2.92566,-2.69469 -2.92566,-8.08406 v -23.94423 l 6.62124,-0.76991 v 22.78936 q 0,2.54071 0.61593,4.08053 0.61593,1.46283 2.00176,2.15575 1.38584,0.61593 3.84956,0.61593 3.69557,0 9.23893,-2.84867 v -26.02299 z m 28.71763,-0.15399 q 4.46549,0 7.46814,2.23275 3.00265,2.15575 4.46548,6.0053 1.46283,3.77257 1.46283,8.54601 0,6.69823 -2.92566,10.93274 -2.84867,4.15752 -7.23716,6.0053 -4.38849,1.84779 -9.08495,1.84779 -5.15841,0 -12.0876,-2.23274 v -51.66103 l 6.62123,-0.76991 v 22.09645 q 5.46637,-3.00266 11.31769,-3.00266 z m -6.0823,30.10352 q 5.46637,0 8.93097,-3.07964 3.4646,-3.15664 3.4646,-10.3938 0,-5.23539 -2.00177,-8.08406 -2.00177,-2.84867 -6.15928,-2.84867 -4.54248,0 -9.46991,2.23274 v 21.5575 q 2.92566,0.61593 5.23539,0.61593 z"
         id="path8" /></g><path
       style="font-size:200px;line-height:1.2;font-family:Dubai;-inkscape-font-specification:Dubai;letter-spacing:0px;fill:#3f494b;stroke-width:3;stroke-linecap:round;stroke-linejoin:round;stroke-miterlimit:20"
       d="m 556.7875,225.64063 q -14,0 -25.8,-3.8 -11.8,-4 -20.8,-11 l 8.8,-13.2 q 8,6.2 18,9.4 10.2,3 19.2,3 14.4,0 21.8,-5.2 7.6,-5.2 7.6,-15.8 0,-6.2 -2.8,-10.2 -2.6,-4 -8.8,-7.2 -6,-3.4 -17.4,-7.4 l -3.4,-1.2 q -12.6,-4.4 -20.4,-8.6 -7.8,-4.4 -12.6,-11.4 -4.8,-7 -4.8,-17.6 0,-11.2 6,-18.8 6.2,-7.799999 16.2,-11.599999 10,-3.8 21.4,-3.8 12,0 22.6,3 10.8,3 21,9.799999 l -8.4,13.2 q -8.8,-5.6 -17,-8 -8.2,-2.6 -18.4,-2.6 -10.6,0 -17.6,4.4 -7,4.4 -7,13.6 0,4.8 2.2,8.4 2.4,3.6 8,6.8 5.8,3.2 16,6.8 l 3.4,1.2 q 13.4,4.6 21.4,8.8 8,4 13.8,11.8 5.8,7.6 5.8,19.8 0,12.2 -5.8,20.6 -5.8,8.2 -16.6,12.6 -10.8,4.2 -25.6,4.2 z M 723.58752,93.640631 v 15.999999 h -44.8 v 113.6 h -18.4 v -113.6 h -45 V 93.640631 Z m 58.7998,0 48.8,128.399999 v 1.2 h -19.2 l -13.6,-37 h -55.2 l -13.4,37 h -18.4 v -1.2 l 48.6,-128.399999 z m -33.6,77.399999 h 44 l -22,-60 z m 136.39984,54.6 q -14,0 -25.8,-3.8 -11.8,-4 -20.8,-11 l 8.8,-13.2 q 8,6.2 18,9.4 10.2,3 19.2,3 14.4,0 21.8,-5.2 7.6,-5.2 7.6,-15.8 0,-6.2 -2.8,-10.2 -2.6,-4 -8.8,-7.2 -6,-3.4 -17.4,-7.4 l -3.4,-1.2 q -12.6,-4.4 -20.4,-8.6 -7.8,-4.4 -12.6,-11.4 -4.8,-7 -4.8,-17.6 0,-11.2 6,-18.8 6.2,-7.799999 16.2,-11.599999 10,-3.8 21.4,-3.8 12,0 22.6,3 10.8,3 21,9.799999 l -8.4,13.2 q -8.8,-5.6 -17,-8 -8.2,-2.6 -18.4,-2.6 -10.6,0 -17.6,4.4 -7,4.4 -7,13.6 0,4.8 2.2,8.4 2.4,3.6 8,6.8 5.8,3.2 16,6.8 l 3.4,1.2 q 13.4,4.6 21.4,8.8 8,4 13.8,11.8 5.8,7.6 5.8,19.8 0,12.2 -5.8,20.6 -5.8,8.2 -16.6,12.6 -10.8,4.2 -25.6,4.2 z M 1048.5872,93.640631 h 18.4 V 223.24063 h -18.4 v -58.2 h -71.59997 v 58.2 h -18.4 V 93.640631 h 18.4 v 55.799999 h 71.59997 z"
       id="text4"
       aria-label="STASH" /></g></svg>
