<?xml version="1.0" encoding="UTF-8" standalone="no"?>
<!-- Created with Inkscape (http://www.inkscape.org/) -->

<svg
   width="1111.9872"
   height="512"
   viewBox="0 0 1111.9872 512"
   version="1.1"
   id="svg5"
   xml:space="preserve"
   sodipodi:docname="stash-w-text-shapes.svg"
   inkscape:version="1.4 (86a8ad7, 2024-10-11)"
   xmlns:inkscape="http://www.inkscape.org/namespaces/inkscape"
   xmlns:sodipodi="http://sodipodi.sourceforge.net/DTD/sodipodi-0.dtd"
   xmlns="http://www.w3.org/2000/svg"
   xmlns:svg="http://www.w3.org/2000/svg"><sodipodi:namedview
     id="namedview1"
     pagecolor="#ffffff"
     bordercolor="#000000"
     borderopacity="0.25"
     inkscape:showpageshadow="2"
     inkscape:pageopacity="0.0"
     inkscape:pagecheckerboard="0"
     inkscape:deskcolor="#d1d1d1"
     showgrid="true"
     inkscape:zoom="0.56982422"
     inkscape:cx="228.14053"
     inkscape:cy="252.70951"
     inkscape:window-width="1718"
     inkscape:window-height="1360"
     inkscape:window-x="0"
     inkscape:window-y="0"
     inkscape:window-maximized="0"
     inkscape:current-layer="g1"><inkscape:grid
       id="grid5"
       units="px"
       originx="0"
       originy="0"
       spacingx="1"
       spacingy="1"
       empcolor="#0099e5"
       empopacity="0.30196078"
       color="#0099e5"
       opacity="0.14901961"
       empspacing="5"
       enabled="true"
       visible="true" /></sodipodi:namedview><defs
     id="defs2" /><g
     id="layer1"><g
       id="g7309"
       transform="matrix(1.1170213,0,0,1.1170213,-29.957453,-29.867948)"><path
         style="fill:#ffcb81;fill-opacity:1;stroke:none;stroke-width:1px;stroke-linecap:butt;stroke-linejoin:miter;stroke-opacity:1"
         d="M 72,136 256,72 440,136 256,200 Z"
         id="path2600" /><path
         style="fill:#ffcc81;fill-opacity:1;stroke:none;stroke-width:1px;stroke-linecap:butt;stroke-linejoin:miter;stroke-opacity:1"
         d="M 440,136 256,200 V 440 L 440,376 Z"
         id="path2046" /><path
         style="fill:#c8cbcd;fill-opacity:1;stroke:none;stroke-width:1px;stroke-linecap:butt;stroke-linejoin:miter;stroke-opacity:1"
         d="m 140,112 180,64 v 68 l 56,-20 V 158 L 192,94 Z"
         id="path4467" /><path
         style="fill:#c8cbcd;fill-opacity:1;stroke:none;stroke-width:1px;stroke-linecap:butt;stroke-linejoin:miter;stroke-opacity:1"
         d="m 280,366 56,-20 v 40 l -56,20 z"
         id="path3430" /><path
         style="fill:#ffe083;fill-opacity:1;stroke:none;stroke-width:1px;stroke-linecap:butt;stroke-linejoin:miter;stroke-opacity:1"
         d="m 72,136 184,64 V 440 L 72,376 Z"
         id="path1078" /><path
         id="path367"
         style="color:#000000;fill:#3f494b;fill-opacity:1;stroke-linecap:round;stroke-linejoin:round"
         d="M 254.68555,68.222656 70.685547,132.22266 a 4.0004,4.0004 0 0 0 -0.232422,0.21679 4.0004,4.0004 0 0 0 -1.841797,1.70508 4.0004,4.0004 0 0 0 -0.27539,0.83594 A 4.0004,4.0004 0 0 0 68,136 v 240 a 4.0004,4.0004 0 0 0 2.685547,3.77734 l 184.000003,64 a 4.0004,4.0004 0 0 0 0.0723,0.002 4.0004,4.0004 0 0 0 1.24219,0.0215 4.0004,4.0004 0 0 0 1.24219,-0.0215 4.0004,4.0004 0 0 0 0.0723,-0.002 l 184,-64 A 4.0004,4.0004 0 0 0 444,376 V 136 a 4.0004,4.0004 0 0 0 -0.12305,-0.37305 4.0004,4.0004 0 0 0 -0.51172,-1.55664 4.0004,4.0004 0 0 0 -0.29687,-0.55078 4.0004,4.0004 0 0 0 -1.75391,-1.29687 l -184,-64.000004 a 4.0004,4.0004 0 0 0 -2.6289,0 z M 256,76.234375 427.82617,136 256,195.76562 84.173828,136 Z M 76,141.625 l 110,38.26172 66,22.95703 V 434.375 L 76,373.15625 Z m 360,0 V 373.15625 L 260,434.375 V 202.84375 l 66,-22.95703 z" /><path
         style="fill:none;stroke:#3f494b;stroke-width:8;stroke-linecap:butt;stroke-linejoin:round;stroke-dasharray:none;stroke-opacity:1"
         d="m 140,112 184,64"
         id="path940" /><path
         style="fill:none;stroke:#3f494b;stroke-width:8;stroke-linecap:butt;stroke-linejoin:round;stroke-dasharray:none;stroke-opacity:1"
         d="m 192,94 184,64"
         id="path940-4" /><path
         style="fill:none;stroke:#3f494b;stroke-width:8;stroke-linecap:butt;stroke-linejoin:round;stroke-dasharray:none;stroke-opacity:1"
         d="m 320,176 v 68 l 56,-20 v -64"
         id="path964" /><path
         style="fill:none;stroke:#3f494b;stroke-width:8;stroke-linecap:round;stroke-linejoin:round;stroke-dasharray:none;stroke-opacity:1"
         d="m 280,366 56,-20 v 40 l -56,20 z"
         id="path1072" /><path
         style="fill:none;stroke:#3f494b;stroke-width:8;stroke-linecap:round;stroke-linejoin:miter;stroke-dasharray:none;stroke-opacity:1"
         d="M 128,358.81875 98,348"
         id="path1074" /></g></g><g
     id="g7"
     transform="translate(0,-2.3220578)"><g
       id="g1"
       transform="translate(0,9.8101325)"><g
         id="text1"
         style="font-size:67.6303px;line-height:1.2;font-family:Dubai;-inkscape-font-specification:Dubai;text-align:center;letter-spacing:0px;text-anchor:middle;fill:#5a7072;stroke-width:3;stroke-linecap:round;stroke-linejoin:round;stroke-miterlimit:20"
         aria-label="Sample Transfer and&#10;Storage Hub"><path
           style="text-align:start;text-anchor:start;stroke-width:2.97697"
           d="m 527.13321,312.04762 q -4.73413,0 -8.72431,-1.28498 -3.99019,-1.3526 -7.03356,-3.71967 l 2.97574,-4.4636 q 2.70521,2.09654 6.08673,3.17863 3.44914,1.01445 6.4925,1.01445 4.86939,0 7.37171,-1.75838 2.56995,-1.75839 2.56995,-5.3428 0,-2.09654 -0.94683,-3.44914 -0.87919,-1.35261 -2.97573,-2.43469 -2.02891,-1.14972 -5.88384,-2.50233 l -1.14971,-0.40578 q -4.26071,-1.48786 -6.89829,-2.9081 -2.63758,-1.48787 -4.26071,-3.85493 -1.62313,-2.36706 -1.62313,-5.95146 0,-3.7873 2.02891,-6.35725 2.09654,-2.63758 5.47806,-3.92256 3.38151,-1.28498 7.23644,-1.28498 4.05782,0 7.64222,1.01446 3.65204,1.01445 7.10118,3.31388 l -2.84047,4.4636 q -2.97573,-1.89365 -5.74857,-2.70521 -2.77285,-0.87919 -6.22199,-0.87919 -3.58441,0 -5.95147,1.48786 -2.36706,1.48787 -2.36706,4.59886 0,1.62313 0.74393,2.84048 0.81157,1.21734 2.70522,2.29943 1.96128,1.08208 5.41042,2.29943 l 1.14972,0.40578 q 4.53123,1.5555 7.23644,2.97573 2.70521,1.35261 4.66649,3.99019 1.96128,2.56995 1.96128,6.6954 0,4.12545 -1.96128,6.96592 -1.96128,2.77284 -5.61332,4.26071 -3.65203,1.42024 -8.65667,1.42024 z m 36.1146,-31.2452 q 5.20753,0 7.77748,2.36706 2.63759,2.36706 2.63759,7.43933 v 20.62724 h -5.27517 l -0.33815,-2.56995 q -4.66649,3.38152 -10.75322,3.38152 -2.56995,0 -4.59886,-0.94683 -2.02891,-1.01445 -3.17862,-2.77284 -1.08209,-1.82602 -1.08209,-4.12545 0,-3.71966 2.63758,-6.15436 2.63759,-2.50232 7.03356,-3.65203 4.39597,-1.14972 9.73876,-1.28498 v -1.48786 q 0,-3.04337 -1.21735,-4.39597 -1.21734,-1.42024 -4.12544,-1.42024 -4.93702,0 -10.27981,3.51678 l -2.56995,-4.05782 q 6.49251,-4.4636 13.59369,-4.4636 z m -8.58905,22.79141 q 0,1.75839 1.01446,2.63758 1.08208,0.8792 3.17862,0.8792 4.59886,0 8.99483,-2.70522 v -7.03355 q -5.88384,0.27052 -9.53587,1.82602 -3.65204,1.5555 -3.65204,4.39597 z m 62.69331,-22.79141 q 3.85493,0 6.15436,2.16417 2.29943,2.16417 2.29943,7.03355 v 21.23591 h -5.8162 V 292.3672 q 0,-2.50232 -0.47342,-3.85493 -0.47341,-1.42023 -1.48786,-2.02891 -1.01446,-0.60867 -2.84048,-0.60867 -1.96127,0 -4.12544,0.60867 -2.16417,0.54105 -4.05782,1.48787 0.13526,1.35261 0.13526,2.02891 v 21.23591 h -5.81621 V 292.3672 q 0,-2.50232 -0.47341,-3.85493 -0.40578,-1.42023 -1.42024,-2.02891 -1.01445,-0.60867 -2.84047,-0.60867 -1.89365,0 -3.99019,0.60867 -2.09654,0.54105 -3.99018,1.42024 v 23.33245 h -5.81621 v -29.62207 l 5.81621,-0.6763 v 2.84047 q 5.20753,-2.97573 10.14454,-2.97573 5.00464,0 7.03355,3.31388 2.43469,-1.42023 5.47806,-2.36706 3.11099,-0.94682 6.08672,-0.94682 z m 32.73307,0 q 4.19308,0 6.96592,2.02891 2.77284,2.02891 4.05782,5.41042 1.3526,3.38152 1.3526,7.3717 0,5.13991 -2.02891,8.85957 -1.96128,3.71967 -5.41042,5.68095 -3.44915,1.89365 -7.84512,1.89365 -3.31388,0 -6.42487,-0.8792 v 12.64687 h -5.81621 v -42.20131 l 5.81621,-0.6763 v 2.63758 q 2.43469,-1.35261 4.80175,-2.02891 2.43469,-0.74393 4.53123,-0.74393 z m -3.38152,26.64634 q 2.77284,0 4.86938,-1.21735 2.16417,-1.28497 3.38152,-3.92256 1.28497,-2.63758 1.28497,-6.56014 0,-5.07227 -2.0289,-7.50696 -2.02891,-2.43469 -5.74858,-2.43469 -3.92256,0 -7.70985,2.2318 v 18.39544 q 3.17862,1.01446 5.95146,1.01446 z m 22.85899,3.78729 v -46.52964 l 5.81621,-0.67631 v 47.20595 z m 39.42844,-13.79658 h -20.62724 q 0.0676,5.07227 2.43469,7.3717 2.43469,2.29944 6.22199,2.29944 2.70521,0 4.66649,-0.67631 2.02891,-0.6763 4.4636,-2.09654 l 2.2318,4.12545 q -5.54568,3.58441 -11.63241,3.58441 -6.49251,0 -10.41507,-3.58441 -3.85492,-3.65204 -3.85492,-11.49715 0,-4.4636 1.62312,-8.11564 1.62313,-3.65203 4.80175,-5.8162 3.24626,-2.2318 7.91275,-2.2318 3.92256,0 6.6954,1.62312 2.77284,1.5555 4.19308,4.32834 1.42023,2.77285 1.42023,6.35725 z M 696.8176,285.33365 q -3.51678,0 -5.54569,2.09654 -1.96127,2.09654 -2.56995,5.74857 h 14.74341 v -0.27052 q 0,-3.7873 -1.75839,-5.68094 -1.69076,-1.89365 -4.86938,-1.89365 z m 68.78002,-17.92203 v 5.41042 h -15.14919 v 38.41401 h -6.22198 v -38.41401 h -15.21682 v -5.41042 z m 14.3376,13.3908 q 1.14971,0 2.09654,0.13526 0.94682,0.13526 2.0289,0.40578 l -1.08208,6.0191 q -2.29943,-0.81157 -4.19308,-0.81157 -2.16417,0 -3.99019,0.94683 -1.82601,0.94682 -3.51677,3.5844 v 20.15383 h -5.81621 v -29.6897 l 5.81621,-0.60867 v 4.26071 q 1.69076,-2.16417 3.92256,-3.24626 2.2318,-1.14971 4.73412,-1.14971 z m 20.96546,0 q 5.20753,0 7.77748,2.36706 2.63758,2.36706 2.63758,7.43933 v 20.62724 h -5.27516 l -0.33815,-2.56995 q -4.66649,3.38152 -10.75322,3.38152 -2.56995,0 -4.59886,-0.94683 -2.02891,-1.01445 -3.17863,-2.77284 -1.08208,-1.82602 -1.08208,-4.12545 0,-3.71966 2.63758,-6.15436 2.63758,-2.50232 7.03355,-3.65203 4.39597,-1.14972 9.73877,-1.28498 v -1.48786 q 0,-3.04337 -1.21735,-4.39597 -1.21735,-1.42024 -4.12545,-1.42024 -4.93701,0 -10.2798,3.51678 l -2.56996,-4.05782 q 6.49251,-4.4636 13.5937,-4.4636 z m -8.58905,22.79141 q 0,1.75839 1.01445,2.63758 1.08209,0.8792 3.17863,0.8792 4.59886,0 8.99483,-2.70522 v -7.03355 q -5.88384,0.27052 -9.53588,1.82602 -3.65203,1.5555 -3.65203,4.39597 z m 44.77131,-22.79141 q 9.06246,0 9.06246,9.40061 v 21.03302 h -5.81621 V 292.3672 q 0,-2.50232 -0.54104,-3.85493 -0.47341,-1.42023 -1.69076,-2.02891 -1.14971,-0.60867 -3.17862,-0.60867 -2.02891,0 -4.32834,0.60867 -2.29943,0.54105 -4.32834,1.48787 v 23.26482 h -5.81621 v -29.62207 l 5.81621,-0.6763 v 2.84047 q 5.68094,-2.97573 10.82085,-2.97573 z m 27.86364,31.2452 q -3.99019,0 -7.16882,-0.94683 -3.17862,-1.01445 -5.88383,-3.04336 l 2.56995,-4.12545 q 4.93701,3.51678 10.2798,3.51678 3.04337,0 4.6665,-1.01446 1.62312,-1.08208 1.62312,-3.11099 0,-1.62313 -1.48786,-2.77284 -1.42024,-1.21735 -5.07228,-2.16417 l -2.09654,-0.54105 q -4.73412,-1.21734 -6.96592,-3.17862 -2.16417,-2.02891 -2.16417,-5.34279 0,-2.50233 1.42024,-4.39597 1.42024,-1.96128 3.92256,-3.04337 2.56995,-1.08208 5.74857,-1.08208 3.04337,0 5.81621,0.74393 2.84047,0.6763 5.74857,2.36706 l -2.36706,4.12545 q -2.77284,-1.48787 -4.80175,-2.02891 -2.02891,-0.60867 -4.32834,-0.60867 -2.43469,0 -3.85492,1.01445 -1.35261,0.94683 -1.35261,2.56995 0,1.42024 1.08208,2.2318 1.14972,0.74394 3.92256,1.48787 l 2.09654,0.54104 q 3.85493,1.01446 6.15436,2.29943 2.36706,1.28498 3.44914,3.111 1.08209,1.75839 1.08209,4.26071 0,2.70521 -1.42024,4.80175 -1.3526,2.02891 -4.05782,3.17862 -2.70521,1.14972 -6.56013,1.14972 z m 31.71857,-42.87761 q -2.56995,0 -3.85493,1.69075 -1.21734,1.62313 -1.21734,4.66649 v 6.08673 h 9.19772 l -0.60867,4.59886 h -8.58905 v 25.02321 h -5.81621 v -25.02321 h -5.41042 v -4.59886 h 5.41042 v -5.95147 q 0,-3.38151 1.28498,-5.95146 1.28497,-2.56995 3.65203,-3.99019 2.43469,-1.42024 5.68095,-1.42024 3.71967,0 6.83066,1.14972 l -1.48787,4.59886 q -2.50232,-0.87919 -5.07227,-0.87919 z m 32.0568,28.26946 h -20.62724 q 0.0676,5.07227 2.43469,7.3717 2.43469,2.29944 6.22199,2.29944 2.70521,0 4.66649,-0.67631 2.02891,-0.6763 4.4636,-2.09654 l 2.2318,4.12545 q -5.54569,3.58441 -11.63241,3.58441 -6.49251,0 -10.41507,-3.58441 -3.85493,-3.65204 -3.85493,-11.49715 0,-4.4636 1.62313,-8.11564 1.62313,-3.65203 4.80175,-5.8162 3.24625,-2.2318 7.91275,-2.2318 3.92255,0 6.6954,1.62312 2.77284,1.5555 4.19307,4.32834 1.42024,2.77285 1.42024,6.35725 z M 916.5485,285.33365 q -3.51678,0 -5.54569,2.09654 -1.96128,2.09654 -2.56995,5.74857 h 14.74341 v -0.27052 q 0,-3.7873 -1.75839,-5.68094 -1.69076,-1.89365 -4.86938,-1.89365 z m 33.88281,-4.53123 q 1.14972,0 2.09654,0.13526 0.94682,0.13526 2.02891,0.40578 l -1.08209,6.0191 q -2.29943,-0.81157 -4.19308,-0.81157 -2.16416,0 -3.99018,0.94683 -1.82602,0.94682 -3.51678,3.5844 v 20.15383 h -5.8162 v -29.6897 l 5.8162,-0.60867 v 4.26071 q 1.69076,-2.16417 3.92256,-3.24626 2.2318,-1.14971 4.73412,-1.14971 z m 38.21116,0 q 5.20753,0 7.77748,2.36706 2.63758,2.36706 2.63758,7.43933 v 20.62724 h -5.27516 l -0.33815,-2.56995 q -4.66649,3.38152 -10.75322,3.38152 -2.56995,0 -4.59886,-0.94683 -2.02891,-1.01445 -3.17863,-2.77284 -1.08208,-1.82602 -1.08208,-4.12545 0,-3.71966 2.63758,-6.15436 2.63758,-2.50232 7.03355,-3.65203 4.39597,-1.14972 9.73877,-1.28498 v -1.48786 q 0,-3.04337 -1.21735,-4.39597 -1.21734,-1.42024 -4.12545,-1.42024 -4.93701,0 -10.2798,3.51678 l -2.56995,-4.05782 q 6.4925,-4.4636 13.59369,-4.4636 z m -8.58905,22.79141 q 0,1.75839 1.01445,2.63758 1.08209,0.8792 3.17863,0.8792 4.59886,0 8.99483,-2.70522 v -7.03355 q -5.88384,0.27052 -9.53588,1.82602 -3.65203,1.5555 -3.65203,4.39597 z m 44.77128,-22.79141 q 9.0625,0 9.0625,9.40061 v 21.03302 h -5.8162 V 292.3672 q 0,-2.50232 -0.5411,-3.85493 -0.4734,-1.42023 -1.6907,-2.02891 -1.1498,-0.60867 -3.1787,-0.60867 -2.0289,0 -4.3283,0.60867 -2.2994,0.54105 -4.3284,1.48787 v 23.26482 h -5.8162 v -29.62207 l 5.8162,-0.6763 v 2.84047 q 5.681,-2.97573 10.8209,-2.97573 z m 43.351,-16.77232 v 47.20595 h -5.2752 l -0.2705,-2.16417 q -2.4347,1.42024 -4.937,2.16417 -2.5023,0.81157 -4.6665,0.81157 -3.9226,0 -6.6954,-1.75839 -2.7729,-1.82602 -4.2607,-5.1399 -1.4203,-3.38152 -1.4203,-7.91275 0,-5.1399 1.9613,-8.85957 2.0289,-3.71967 5.4781,-5.61331 3.4491,-1.96128 7.8451,-1.96128 2.9081,0 6.4249,0.87919 v -16.9752 z m -21.3036,33.07122 q 0,5.07227 2.0289,7.50696 2.0289,2.43469 5.7486,2.43469 3.9226,0 7.7099,-2.2318 v -18.39544 q -3.0434,-1.01445 -5.9515,-1.01445 -2.7728,0 -4.937,1.28497 -2.0965,1.21735 -3.3815,3.85493 -1.2174,2.63758 -1.2174,6.56014 z"
           id="path1" /><path
           style="text-align:start;text-anchor:start;stroke-width:2.97697"
           d="m 527.13321,393.20398 q -4.73413,0 -8.72431,-1.28497 -3.99019,-1.35261 -7.03356,-3.71967 l 2.97574,-4.4636 q 2.70521,2.09654 6.08673,3.17863 3.44914,1.01445 6.4925,1.01445 4.86939,0 7.37171,-1.75839 2.56995,-1.75839 2.56995,-5.34279 0,-2.09654 -0.94683,-3.44915 -0.87919,-1.3526 -2.97573,-2.43469 -2.02891,-1.14971 -5.88384,-2.50232 l -1.14971,-0.40578 q -4.26071,-1.48787 -6.89829,-2.9081 -2.63758,-1.48787 -4.26071,-3.85493 -1.62313,-2.36706 -1.62313,-5.95147 0,-3.7873 2.02891,-6.35725 2.09654,-2.63758 5.47806,-3.92255 3.38151,-1.28498 7.23644,-1.28498 4.05782,0 7.64222,1.01445 3.65204,1.01446 7.10118,3.31389 l -2.84047,4.4636 q -2.97573,-1.89365 -5.74857,-2.70521 -2.77285,-0.8792 -6.22199,-0.8792 -3.58441,0 -5.95147,1.48787 -2.36706,1.48787 -2.36706,4.59886 0,1.62313 0.74393,2.84047 0.81157,1.21735 2.70522,2.29943 1.96128,1.08209 5.41042,2.29943 l 1.14972,0.40579 q 4.53123,1.55549 7.23644,2.97573 2.70521,1.3526 4.66649,3.99019 1.96128,2.56995 1.96128,6.6954 0,4.12545 -1.96128,6.96592 -1.96128,2.77284 -5.61332,4.26071 -3.65203,1.42023 -8.65667,1.42023 z m 41.72796,-1.89365 q -3.51678,1.89365 -7.43934,1.89365 -4.19308,0 -6.62777,-2.36706 -2.43469,-2.43469 -2.43469,-7.23644 v -16.23127 h -5.95146 v -4.59886 h 5.95146 v -6.6954 l 5.81621,-0.94683 v 7.64223 h 10.00928 l -0.60867,4.59886 h -9.40061 v 15.28445 q 0,5.68094 4.19308,5.68094 1.21734,0 2.36706,-0.27052 1.14971,-0.27052 2.50232,-0.87919 z m 16.90753,1.89365 q -4.73412,0 -7.91275,-2.02891 -3.17862,-2.09654 -4.73412,-5.61331 -1.5555,-3.58441 -1.5555,-8.04801 0,-5.41042 2.02891,-8.85957 2.02891,-3.51677 5.47806,-5.07227 3.44914,-1.62313 7.84511,-1.62313 4.73412,0 7.91275,2.09654 3.17862,2.02891 4.73412,5.54569 1.55549,3.51677 1.55549,7.98037 0,5.47806 -2.0289,8.99483 -2.02891,3.44915 -5.47806,5.07228 -3.44914,1.55549 -7.84511,1.55549 z m 0.54104,-4.73412 q 8.72431,0 8.72431,-10.95611 0,-4.93701 -2.16417,-7.84511 -2.09654,-2.97574 -6.35725,-2.97574 -4.73412,0 -6.83066,2.90811 -2.02891,2.84047 -2.02891,7.91274 0,5.00465 2.16417,7.98038 2.16417,2.97573 6.49251,2.97573 z m 36.3851,-26.51108 q 1.14971,0 2.09654,0.13526 0.94682,0.13526 2.02891,0.40579 l -1.08209,6.01909 q -2.29943,-0.81156 -4.19308,-0.81156 -2.16417,0 -3.99019,0.94682 -1.82601,0.94683 -3.51677,3.58441 v 20.15383 h -5.81621 v -29.6897 l 5.81621,-0.60868 v 4.26071 q 1.69076,-2.16417 3.92256,-3.24625 2.2318,-1.14972 4.73412,-1.14972 z m 20.96548,0 q 5.20753,0 7.77748,2.36706 2.63759,2.36706 2.63759,7.43934 v 20.62724 h -5.27517 l -0.33815,-2.56995 q -4.66649,3.38151 -10.75322,3.38151 -2.56995,0 -4.59886,-0.94682 -2.02891,-1.01446 -3.17862,-2.77284 -1.08209,-1.82602 -1.08209,-4.12545 0,-3.71967 2.63758,-6.15436 2.63759,-2.50232 7.03356,-3.65204 4.39597,-1.14971 9.73876,-1.28497 v -1.48787 q 0,-3.04336 -1.21735,-4.39597 -1.21734,-1.42023 -4.12544,-1.42023 -4.93702,0 -10.27981,3.51677 l -2.56995,-4.05782 q 6.49251,-4.4636 13.59369,-4.4636 z m -8.58905,22.79142 q 0,1.75838 1.01445,2.63758 1.08209,0.87919 3.17863,0.87919 4.59886,0 8.99483,-2.70521 v -7.03355 q -5.88384,0.27052 -9.53587,1.82602 -3.65204,1.55549 -3.65204,4.39597 z m 44.77128,2.84047 q 3.99019,0.33815 6.49251,1.21734 2.56995,0.8792 3.85493,2.50232 1.28497,1.62313 1.28497,4.19308 0,3.111 -2.02891,5.41043 -1.96128,2.36706 -5.68094,3.5844 -3.71967,1.28498 -8.85957,1.28498 -6.56014,0 -10.4827,-2.09654 -3.92256,-2.09654 -3.92256,-6.28962 0,-2.56995 1.21735,-4.26071 1.28497,-1.69075 3.65204,-3.17862 -2.02891,-1.42024 -2.02891,-3.65204 0,-1.3526 0.74393,-2.50232 0.81156,-1.14971 2.50232,-2.36706 -2.43469,-1.35261 -3.65204,-3.58441 -1.21734,-2.2318 -1.21734,-5.1399 0,-3.71967 1.82602,-6.15436 1.89365,-2.43469 4.93701,-3.51677 3.04336,-1.08209 6.76303,-1.08209 1.89365,0 3.92256,0.33816 l 10.07691,-4.19308 2.02891,4.73412 -6.89829,1.96128 q 1.96128,1.48786 2.9081,3.5844 0.94683,2.02891 0.94683,4.39597 0,5.47806 -3.85493,7.98038 -3.7873,2.50232 -9.67113,2.50232 -2.63758,0 -4.53123,-0.47341 -0.8792,0.94682 -0.8792,2.09654 0,0.74393 0.54105,1.21734 0.54104,0.40578 1.75838,0.6763 1.21735,0.2029 3.44915,0.40579 z m -4.86938,-21.30355 q -3.85493,0 -5.68095,1.75839 -1.75838,1.75839 -1.75838,4.59886 0,2.9081 1.82601,4.59886 1.82602,1.69076 5.74858,1.69076 7.30407,0 7.30407,-6.08673 0,-3.04336 -1.96128,-4.80175 -1.89365,-1.75839 -5.47805,-1.75839 z m 0.0676,34.96487 q 4.39597,0 7.30407,-1.14972 2.97573,-1.14971 2.97573,-3.78729 0,-1.21735 -0.81156,-2.02891 -0.81156,-0.74394 -2.50232,-1.21735 -1.69076,-0.40578 -4.4636,-0.6763 l -4.80175,-0.40578 q -2.16417,-0.20289 -3.99019,-0.60867 -1.28498,1.14971 -2.02891,2.43469 -0.6763,1.3526 -0.6763,2.70521 0,2.36706 2.16417,3.51677 2.16417,1.21735 6.83066,1.21735 z m 45.98855,-22.65615 h -20.62724 q 0.0676,5.07227 2.43469,7.3717 2.43469,2.29943 6.22199,2.29943 2.70521,0 4.66649,-0.6763 2.02891,-0.6763 4.4636,-2.09654 l 2.2318,4.12545 q -5.54568,3.5844 -11.63241,3.5844 -6.49251,0 -10.41507,-3.5844 -3.85492,-3.65204 -3.85492,-11.49715 0,-4.4636 1.62312,-8.11564 1.62313,-3.65204 4.80175,-5.81621 3.24626,-2.2318 7.91275,-2.2318 3.92256,0 6.6954,1.62313 2.77284,1.5555 4.19308,4.32834 1.42023,2.77284 1.42023,6.35725 z M 708.8559,366.49001 q -3.51678,0 -5.54569,2.09654 -1.96127,2.09654 -2.56995,5.74858 h 14.74341 v -0.27052 q 0,-3.7873 -1.75839,-5.68095 -1.69076,-1.89365 -4.86938,-1.89365 z m 66.88641,-17.92203 h 6.22198 v 43.82444 h -6.22198 V 372.712 h -24.21165 v 19.68042 h -6.22199 v -43.82444 h 6.22199 v 18.86886 h 24.21165 z m 41.59257,13.52606 v 30.29838 h -5.20753 l -0.33815,-2.2318 q -5.20754,3.04336 -10.55033,3.04336 -4.12545,0 -6.76303,-2.29943 -2.56995,-2.36706 -2.56995,-7.10118 v -21.03302 l 5.8162,-0.67631 v 20.01857 q 0,2.2318 0.54105,3.58441 0.54104,1.28498 1.75838,1.89365 1.21735,0.54104 3.38152,0.54104 3.24625,0 8.11564,-2.50232 v -22.85904 z m 25.2261,-0.13526 q 3.92256,0 6.56014,1.96128 2.63758,1.89365 3.92256,5.27517 1.28497,3.31388 1.28497,7.50696 0,5.88384 -2.56995,9.6035 -2.50232,3.65204 -6.35725,5.27517 -3.85492,1.62312 -7.98037,1.62312 -4.53123,0 -10.61796,-1.96128 v -45.37993 l 5.81621,-0.6763 v 19.4099 q 4.80175,-2.63759 9.94165,-2.63759 z m -5.34279,26.44345 q 4.80175,0 7.84511,-2.70521 3.04337,-2.77284 3.04337,-9.13009 0,-4.59886 -1.75839,-7.10118 -1.75839,-2.50232 -5.41043,-2.50232 -3.99018,0 -8.31852,1.96127 v 18.93649 q 2.56995,0.54104 4.59886,0.54104 z"
           id="path2" /></g><path
         style="font-size:200px;line-height:1.2;font-family:Dubai;-inkscape-font-specification:Dubai;letter-spacing:0px;fill:#3f494b;stroke-width:3;stroke-linecap:round;stroke-linejoin:round;stroke-miterlimit:20"
         d="m 556.7875,225.64063 q -14,0 -25.8,-3.8 -11.8,-4 -20.8,-11 l 8.8,-13.2 q 8,6.2 18,9.4 10.2,3 19.2,3 14.4,0 21.8,-5.2 7.6,-5.2 7.6,-15.8 0,-6.2 -2.8,-10.2 -2.6,-4 -8.8,-7.2 -6,-3.4 -17.4,-7.4 l -3.4,-1.2 q -12.6,-4.4 -20.4,-8.6 -7.8,-4.4 -12.6,-11.4 -4.8,-7 -4.8,-17.6 0,-11.2 6,-18.8 6.2,-7.799999 16.2,-11.599999 10,-3.8 21.4,-3.8 12,0 22.6,3 10.8,3 21,9.799999 l -8.4,13.2 q -8.8,-5.6 -17,-8 -8.2,-2.6 -18.4,-2.6 -10.6,0 -17.6,4.4 -7,4.4 -7,13.6 0,4.8 2.2,8.4 2.4,3.6 8,6.8 5.8,3.2 16,6.8 l 3.4,1.2 q 13.4,4.6 21.4,8.8 8,4 13.8,11.8 5.8,7.6 5.8,19.8 0,12.2 -5.8,20.6 -5.8,8.2 -16.6,12.6 -10.8,4.2 -25.6,4.2 z M 723.58752,93.640631 v 15.999999 h -44.8 v 113.6 h -18.4 v -113.6 h -45 V 93.640631 Z m 58.7998,0 48.8,128.399999 v 1.2 h -19.2 l -13.6,-37 h -55.2 l -13.4,37 h -18.4 v -1.2 l 48.6,-128.399999 z m -33.6,77.399999 h 44 l -22,-60 z m 136.39984,54.6 q -14,0 -25.8,-3.8 -11.8,-4 -20.8,-11 l 8.8,-13.2 q 8,6.2 18,9.4 10.2,3 19.2,3 14.4,0 21.8,-5.2 7.6,-5.2 7.6,-15.8 0,-6.2 -2.8,-10.2 -2.6,-4 -8.8,-7.2 -6,-3.4 -17.4,-7.4 l -3.4,-1.2 q -12.6,-4.4 -20.4,-8.6 -7.8,-4.4 -12.6,-11.4 -4.8,-7 -4.8,-17.6 0,-11.2 6,-18.8 6.2,-7.799999 16.2,-11.599999 10,-3.8 21.4,-3.8 12,0 22.6,3 10.8,3 21,9.799999 l -8.4,13.2 q -8.8,-5.6 -17,-8 -8.2,-2.6 -18.4,-2.6 -10.6,0 -17.6,4.4 -7,4.4 -7,13.6 0,4.8 2.2,8.4 2.4,3.6 8,6.8 5.8,3.2 16,6.8 l 3.4,1.2 q 13.4,4.6 21.4,8.8 8,4 13.8,11.8 5.8,7.6 5.8,19.8 0,12.2 -5.8,20.6 -5.8,8.2 -16.6,12.6 -10.8,4.2 -25.6,4.2 z M 1048.5872,93.640631 h 18.4 V 223.24063 h -18.4 v -58.2 h -71.59997 v 58.2 h -18.4 V 93.640631 h 18.4 v 55.799999 h 71.59997 z"
         id="text4"
         aria-label="STASH" /></g></g></svg>
