<?xml version="1.0" encoding="UTF-8" standalone="no"?>
<!-- Created with Inkscape (http://www.inkscape.org/) -->

<svg
   width="532.479"
   height="135.317"
   viewBox="0 0 140.88504 35.802624"
   version="1.1"
   id="svg5"
   inkscape:version="1.2.2 (732a01da63, 2022-12-09)"
   sodipodi:docname="stash-text.svg.2022_12_14_10_29_07.0.svg"
   xmlns:inkscape="http://www.inkscape.org/namespaces/inkscape"
   xmlns:sodipodi="http://sodipodi.sourceforge.net/DTD/sodipodi-0.dtd"
   xmlns="http://www.w3.org/2000/svg"
   xmlns:svg="http://www.w3.org/2000/svg">
  <sodipodi:namedview
     id="namedview7"
     pagecolor="#ffffff"
     bordercolor="#666666"
     borderopacity="1.0"
     inkscape:showpageshadow="2"
     inkscape:pageopacity="0.0"
     inkscape:pagecheckerboard="0"
     inkscape:deskcolor="#d1d1d1"
     inkscape:document-units="px"
     showgrid="false"
     inkscape:zoom="1.3056256"
     inkscape:cx="70.847263"
     inkscape:cy="215.98841"
     inkscape:window-width="2560"
     inkscape:window-height="1377"
     inkscape:window-x="1912"
     inkscape:window-y="-8"
     inkscape:window-maximized="1"
     inkscape:current-layer="layer1" />
  <defs
     id="defs2" />
  <g
     inkscape:label="Layer 1"
     inkscape:groupmode="layer"
     id="layer1"
     transform="translate(-15.650527,-98.213485)">
    <g
       aria-label="STASH"
       id="text401"
       style="font-size:42.3333px;line-height:1.25;fill:#ffffff;stroke-width:0.264583"
       transform="translate(-0.607945)">
      <path
         d="m 42.928452,129.44975 v 1.82033 h -26.66998 v -1.82033 h 5.418663 q -2.031998,-1.05833 -3.72533,-2.62467 l 3.132664,-3.76766 q 4.48733,3.89466 9.313326,3.89466 2.412998,0 3.809997,-1.016 1.439333,-1.05833 1.439333,-2.75166 0,-1.73567 -1.354666,-2.667 -1.312332,-0.97366 -4.571997,-1.73566 -3.259664,-0.80434 -4.952996,-1.43934 -1.693332,-0.67733 -3.005664,-1.73566 -2.624665,-1.98967 -2.624665,-6.096 0,-4.10633 2.963331,-6.30766 3.005664,-2.24366 7.408328,-2.24366 2.836331,0 5.630329,0.93133 2.793998,0.93133 4.825996,2.62466 l -2.666998,3.76767 q -1.312332,-1.18533 -3.555997,-1.94733 -2.243665,-0.762 -4.444997,-0.762 -2.158998,0 -3.555997,0.889 -1.396999,0.889 -1.396999,2.70933 0,1.778 1.396999,2.75166 1.396999,0.93133 5.926662,2.032 4.571997,1.10067 6.857995,3.09033 2.328332,1.98967 2.328332,5.588 0,4.36033 -3.217331,6.81566 z"
         style="font-family:'Montserrat Subrayada';-inkscape-font-specification:'Montserrat Subrayada'"
         id="path330" />
      <path
         d="m 68.497731,129.44975 v 1.82033 H 42.928417 v -1.82033 H 53.215409 V 106.2511 H 44.24075 v -4.572 h 22.944649 v 4.572 h -8.97466 v 23.19865 z"
         style="font-family:'Montserrat Subrayada';-inkscape-font-specification:'Montserrat Subrayada'"
         id="path332" />
      <path
         d="m 101.68703,129.44975 v 1.82033 h -9.440325 l -2.963331,-6.73099 H 74.466719 l -2.963331,6.73099 h -9.440327 v -1.82033 h 4.910663 L 79.208049,101.6791 h 5.333996 l 12.234324,27.77065 z m -14.435654,-9.52499 -5.376329,-12.192 -5.37633,12.192 z"
         style="font-family:'Montserrat Subrayada';-inkscape-font-specification:'Montserrat Subrayada'"
         id="path334" />
      <path
         d="m 124.2507,129.44975 v 1.82033 H 97.580723 v -1.82033 h 5.418667 q -2.032,-1.05833 -3.725335,-2.62467 l 3.132665,-3.76766 q 4.48733,3.89466 9.31333,3.89466 2.41299,0 3.80999,-1.016 1.43933,-1.05833 1.43933,-2.75166 0,-1.73567 -1.35466,-2.667 -1.31233,-0.97366 -4.572,-1.73566 -3.25966,-0.80434 -4.95299,-1.43934 -1.69334,-0.67733 -3.00567,-1.73566 -2.62466,-1.98967 -2.62466,-6.096 0,-4.10633 2.96333,-6.30766 3.00566,-2.24366 7.40833,-2.24366 2.83633,0 5.63033,0.93133 2.79399,0.93133 4.82599,2.62466 l -2.667,3.76767 q -1.31233,-1.18533 -3.55599,-1.94733 -2.24367,-0.762 -4.445,-0.762 -2.159,0 -3.556,0.889 -1.397,0.889 -1.397,2.70933 0,1.778 1.397,2.75166 1.397,0.93133 5.92666,2.032 4.572,1.10067 6.858,3.09033 2.32833,1.98967 2.32833,5.588 0,4.36033 -3.21733,6.81566 z"
         style="font-family:'Montserrat Subrayada';-inkscape-font-specification:'Montserrat Subrayada'"
         id="path336" />
      <path
         d="m 157.14365,129.44975 h -4.10633 V 101.6791 h -4.99533 v 12.82699 H 133.35234 V 101.6791 h -4.99533 v 29.59098 h 4.99533 v -12.10732 h 14.68965 v 12.10732 h 9.10166 z m -28.78664,0 v 1.82033 h -4.10633 v -1.82033 z"
         style="font-family:'Montserrat Subrayada';-inkscape-font-specification:'Montserrat Subrayada'"
         id="path338" />
    </g>
  </g>
</svg>
