<?xml version="1.0" encoding="UTF-8" standalone="no"?>
<!-- Created with Inkscape (http://www.inkscape.org/) -->

<svg
   width="1111.9872"
   height="512"
   viewBox="0 0 1111.9872 512"
   version="1.1"
   id="svg5"
   xml:space="preserve"
   sodipodi:docname="stash-w-text.svg"
   inkscape:version="1.4 (86a8ad7, 2024-10-11)"
   xmlns:inkscape="http://www.inkscape.org/namespaces/inkscape"
   xmlns:sodipodi="http://sodipodi.sourceforge.net/DTD/sodipodi-0.dtd"
   xmlns="http://www.w3.org/2000/svg"
   xmlns:svg="http://www.w3.org/2000/svg"><sodipodi:namedview
     id="namedview1"
     pagecolor="#ffffff"
     bordercolor="#000000"
     borderopacity="0.25"
     inkscape:showpageshadow="2"
     inkscape:pageopacity="0.0"
     inkscape:pagecheckerboard="0"
     inkscape:deskcolor="#d1d1d1"
     showgrid="true"
     inkscape:zoom="0.40292657"
     inkscape:cx="35.986706"
     inkscape:cy="268.03891"
     inkscape:window-width="1718"
     inkscape:window-height="1360"
     inkscape:window-x="-7"
     inkscape:window-y="0"
     inkscape:window-maximized="0"
     inkscape:current-layer="svg5"><inkscape:grid
       id="grid5"
       units="px"
       originx="0"
       originy="0"
       spacingx="1"
       spacingy="1"
       empcolor="#0099e5"
       empopacity="0.30196078"
       color="#0099e5"
       opacity="0.14901961"
       empspacing="5"
       enabled="true"
       visible="true" /></sodipodi:namedview><defs
     id="defs2" /><g
     id="layer1"><g
       id="g7309"
       transform="matrix(1.1170213,0,0,1.1170213,-29.957453,-29.867948)"><path
         style="fill:#ffcb81;fill-opacity:1;stroke:none;stroke-width:1px;stroke-linecap:butt;stroke-linejoin:miter;stroke-opacity:1"
         d="M 72,136 256,72 440,136 256,200 Z"
         id="path2600" /><path
         style="fill:#ffcc81;fill-opacity:1;stroke:none;stroke-width:1px;stroke-linecap:butt;stroke-linejoin:miter;stroke-opacity:1"
         d="M 440,136 256,200 V 440 L 440,376 Z"
         id="path2046" /><path
         style="fill:#c8cbcd;fill-opacity:1;stroke:none;stroke-width:1px;stroke-linecap:butt;stroke-linejoin:miter;stroke-opacity:1"
         d="m 140,112 180,64 v 68 l 56,-20 V 158 L 192,94 Z"
         id="path4467" /><path
         style="fill:#c8cbcd;fill-opacity:1;stroke:none;stroke-width:1px;stroke-linecap:butt;stroke-linejoin:miter;stroke-opacity:1"
         d="m 280,366 56,-20 v 40 l -56,20 z"
         id="path3430" /><path
         style="fill:#ffe083;fill-opacity:1;stroke:none;stroke-width:1px;stroke-linecap:butt;stroke-linejoin:miter;stroke-opacity:1"
         d="m 72,136 184,64 V 440 L 72,376 Z"
         id="path1078" /><path
         id="path367"
         style="color:#000000;fill:#3f494b;fill-opacity:1;stroke-linecap:round;stroke-linejoin:round"
         d="M 254.68555,68.222656 70.685547,132.22266 a 4.0004,4.0004 0 0 0 -0.232422,0.21679 4.0004,4.0004 0 0 0 -1.841797,1.70508 4.0004,4.0004 0 0 0 -0.27539,0.83594 A 4.0004,4.0004 0 0 0 68,136 v 240 a 4.0004,4.0004 0 0 0 2.685547,3.77734 l 184.000003,64 a 4.0004,4.0004 0 0 0 0.0723,0.002 4.0004,4.0004 0 0 0 1.24219,0.0215 4.0004,4.0004 0 0 0 1.24219,-0.0215 4.0004,4.0004 0 0 0 0.0723,-0.002 l 184,-64 A 4.0004,4.0004 0 0 0 444,376 V 136 a 4.0004,4.0004 0 0 0 -0.12305,-0.37305 4.0004,4.0004 0 0 0 -0.51172,-1.55664 4.0004,4.0004 0 0 0 -0.29687,-0.55078 4.0004,4.0004 0 0 0 -1.75391,-1.29687 l -184,-64.000004 a 4.0004,4.0004 0 0 0 -2.6289,0 z M 256,76.234375 427.82617,136 256,195.76562 84.173828,136 Z M 76,141.625 l 110,38.26172 66,22.95703 V 434.375 L 76,373.15625 Z m 360,0 V 373.15625 L 260,434.375 V 202.84375 l 66,-22.95703 z" /><path
         style="fill:none;stroke:#3f494b;stroke-width:8;stroke-linecap:butt;stroke-linejoin:round;stroke-dasharray:none;stroke-opacity:1"
         d="m 140,112 184,64"
         id="path940" /><path
         style="fill:none;stroke:#3f494b;stroke-width:8;stroke-linecap:butt;stroke-linejoin:round;stroke-dasharray:none;stroke-opacity:1"
         d="m 192,94 184,64"
         id="path940-4" /><path
         style="fill:none;stroke:#3f494b;stroke-width:8;stroke-linecap:butt;stroke-linejoin:round;stroke-dasharray:none;stroke-opacity:1"
         d="m 320,176 v 68 l 56,-20 v -64"
         id="path964" /><path
         style="fill:none;stroke:#3f494b;stroke-width:8;stroke-linecap:round;stroke-linejoin:round;stroke-dasharray:none;stroke-opacity:1"
         d="m 280,366 56,-20 v 40 l -56,20 z"
         id="path1072" /><path
         style="fill:none;stroke:#3f494b;stroke-width:8;stroke-linecap:round;stroke-linejoin:miter;stroke-dasharray:none;stroke-opacity:1"
         d="M 128,358.81875 98,348"
         id="path1074" /></g></g><g
     id="g7"
     transform="translate(0,-2.3220578)"><text
       xml:space="preserve"
       style="font-style:normal;font-variant:normal;font-weight:normal;font-stretch:normal;font-size:76.9911px;line-height:1.2;font-family:Dubai;-inkscape-font-specification:Dubai;text-align:center;letter-spacing:0px;writing-mode:lr-tb;direction:ltr;text-anchor:middle;fill:#5a7072;fill-opacity:1;stroke-width:3;stroke-linecap:round;stroke-linejoin:round;stroke-miterlimit:20"
       x="509.06561"
       y="317.76993"
       id="text1"><tspan
         sodipodi:role="line"
         id="tspan1"
         x="509.06561"
         y="317.76993"
         style="font-style:normal;font-variant:normal;font-weight:normal;font-stretch:normal;font-size:76.9911px;line-height:1.2;font-family:Dubai;-inkscape-font-specification:Dubai;text-align:start;text-anchor:start;fill:#5a7072;fill-opacity:1;stroke-width:2.97697">Seed Transfer and</tspan><tspan
         sodipodi:role="line"
         x="509.06561"
         y="410.15924"
         id="tspan2"
         style="font-style:normal;font-variant:normal;font-weight:normal;font-stretch:normal;font-size:76.9911px;line-height:1.2;font-family:Dubai;-inkscape-font-specification:Dubai;text-align:start;text-anchor:start;fill:#5a7072;fill-opacity:1;stroke-width:2.97697">Storage Hub</tspan></text><text
       xml:space="preserve"
       style="font-style:normal;font-variant:normal;font-weight:normal;font-stretch:normal;font-size:200px;line-height:1.2;font-family:Dubai;-inkscape-font-specification:Dubai;text-align:center;letter-spacing:0px;writing-mode:lr-tb;direction:ltr;text-anchor:middle;fill:#3f494b;fill-opacity:1;stroke-width:3;stroke-linecap:round;stroke-linejoin:round;stroke-miterlimit:20"
       x="504.1875"
       y="223.24063"
       id="text4"><tspan
         sodipodi:role="line"
         x="504.1875"
         y="223.24063"
         id="tspan4"
         style="font-style:normal;font-variant:normal;font-weight:normal;font-stretch:normal;font-size:200px;line-height:1.2;font-family:Dubai;-inkscape-font-specification:Dubai;text-align:start;text-anchor:start;fill:#3f494b;fill-opacity:1">STASH</tspan></text></g></svg>
