<?xml version="1.0" encoding="UTF-8" standalone="no"?>
<!-- Created with Inkscape (http://www.inkscape.org/) -->

<svg
   width="512"
   height="512"
   viewBox="0 0 512 512"
   version="1.1"
   id="svg5"
   xml:space="preserve"
   xmlns="http://www.w3.org/2000/svg"
   xmlns:svg="http://www.w3.org/2000/svg"><defs
     id="defs2" /><g
     id="g261"
     transform="matrix(0.44124681,0,0,0.44124681,-0.95918327,-2.3083734)"><g
       id="layer1"><g
         id="g7309"
         transform="matrix(1.1170213,0,0,1.1170213,-29.957453,-29.867948)"><path
           style="fill:#ffcb81;fill-opacity:1;stroke:none;stroke-width:1px;stroke-linecap:butt;stroke-linejoin:miter;stroke-opacity:1"
           d="M 72,136 256,72 440,136 256,200 Z"
           id="path2600" /><path
           style="fill:#ffcc81;fill-opacity:1;stroke:none;stroke-width:1px;stroke-linecap:butt;stroke-linejoin:miter;stroke-opacity:1"
           d="M 440,136 256,200 V 440 L 440,376 Z"
           id="path2046" /><path
           style="fill:#c8cbcd;fill-opacity:1;stroke:none;stroke-width:1px;stroke-linecap:butt;stroke-linejoin:miter;stroke-opacity:1"
           d="m 140,112 180,64 v 68 l 56,-20 V 158 L 192,94 Z"
           id="path4467" /><path
           style="fill:#c8cbcd;fill-opacity:1;stroke:none;stroke-width:1px;stroke-linecap:butt;stroke-linejoin:miter;stroke-opacity:1"
           d="m 280,366 56,-20 v 40 l -56,20 z"
           id="path3430" /><path
           style="fill:#ffe083;fill-opacity:1;stroke:none;stroke-width:1px;stroke-linecap:butt;stroke-linejoin:miter;stroke-opacity:1"
           d="m 72,136 184,64 V 440 L 72,376 Z"
           id="path1078" /><path
           id="path367"
           style="color:#000000;fill:#3f494b;fill-opacity:1;stroke-linecap:round;stroke-linejoin:round"
           d="M 254.68555,68.222656 70.685547,132.22266 a 4.0004,4.0004 0 0 0 -0.232422,0.21679 4.0004,4.0004 0 0 0 -1.841797,1.70508 4.0004,4.0004 0 0 0 -0.27539,0.83594 A 4.0004,4.0004 0 0 0 68,136 v 240 a 4.0004,4.0004 0 0 0 2.685547,3.77734 l 184.000003,64 a 4.0004,4.0004 0 0 0 0.0723,0.002 4.0004,4.0004 0 0 0 1.24219,0.0215 4.0004,4.0004 0 0 0 1.24219,-0.0215 4.0004,4.0004 0 0 0 0.0723,-0.002 l 184,-64 A 4.0004,4.0004 0 0 0 444,376 V 136 a 4.0004,4.0004 0 0 0 -0.12305,-0.37305 4.0004,4.0004 0 0 0 -0.51172,-1.55664 4.0004,4.0004 0 0 0 -0.29687,-0.55078 4.0004,4.0004 0 0 0 -1.75391,-1.29687 l -184,-64.000004 a 4.0004,4.0004 0 0 0 -2.6289,0 z M 256,76.234375 427.82617,136 256,195.76562 84.173828,136 Z M 76,141.625 l 110,38.26172 66,22.95703 V 434.375 L 76,373.15625 Z m 360,0 V 373.15625 L 260,434.375 V 202.84375 l 66,-22.95703 z" /><path
           style="fill:none;stroke:#3f494b;stroke-width:8;stroke-linecap:butt;stroke-linejoin:round;stroke-dasharray:none;stroke-opacity:1"
           d="m 140,112 184,64"
           id="path940" /><path
           style="fill:none;stroke:#3f494b;stroke-width:8;stroke-linecap:butt;stroke-linejoin:round;stroke-dasharray:none;stroke-opacity:1"
           d="m 192,94 184,64"
           id="path940-4" /><path
           style="fill:none;stroke:#3f494b;stroke-width:8;stroke-linecap:butt;stroke-linejoin:round;stroke-dasharray:none;stroke-opacity:1"
           d="m 320,176 v 68 l 56,-20 v -64"
           id="path964" /><path
           style="fill:none;stroke:#3f494b;stroke-width:8;stroke-linecap:round;stroke-linejoin:round;stroke-dasharray:none;stroke-opacity:1"
           d="m 280,366 56,-20 v 40 l -56,20 z"
           id="path1072" /><path
           style="fill:none;stroke:#3f494b;stroke-width:8;stroke-linecap:round;stroke-linejoin:miter;stroke-dasharray:none;stroke-opacity:1"
           d="M 128,358.81875 98,348"
           id="path1074" /></g></g></g><g
     id="g343"
     transform="matrix(0.44124681,0,0,0.44124681,287.04082,288.31102)"><g
       id="g341"><g
         id="g339"
         transform="matrix(1.1170213,0,0,1.1170213,-29.957453,-29.867948)"><path
           style="fill:#ffcb81;fill-opacity:1;stroke:none;stroke-width:1px;stroke-linecap:butt;stroke-linejoin:miter;stroke-opacity:1"
           d="M 72,136 256,72 440,136 256,200 Z"
           id="path317" /><path
           style="fill:#ffcc81;fill-opacity:1;stroke:none;stroke-width:1px;stroke-linecap:butt;stroke-linejoin:miter;stroke-opacity:1"
           d="M 440,136 256,200 V 440 L 440,376 Z"
           id="path319" /><path
           style="fill:#c8cbcd;fill-opacity:1;stroke:none;stroke-width:1px;stroke-linecap:butt;stroke-linejoin:miter;stroke-opacity:1"
           d="m 140,112 180,64 v 68 l 56,-20 V 158 L 192,94 Z"
           id="path321" /><path
           style="fill:#c8cbcd;fill-opacity:1;stroke:none;stroke-width:1px;stroke-linecap:butt;stroke-linejoin:miter;stroke-opacity:1"
           d="m 280,366 56,-20 v 40 l -56,20 z"
           id="path323" /><path
           style="fill:#ffe083;fill-opacity:1;stroke:none;stroke-width:1px;stroke-linecap:butt;stroke-linejoin:miter;stroke-opacity:1"
           d="m 72,136 184,64 V 440 L 72,376 Z"
           id="path325" /><path
           id="path327"
           style="color:#000000;fill:#3f494b;fill-opacity:1;stroke-linecap:round;stroke-linejoin:round"
           d="M 254.68555,68.222656 70.685547,132.22266 a 4.0004,4.0004 0 0 0 -0.232422,0.21679 4.0004,4.0004 0 0 0 -1.841797,1.70508 4.0004,4.0004 0 0 0 -0.27539,0.83594 A 4.0004,4.0004 0 0 0 68,136 v 240 a 4.0004,4.0004 0 0 0 2.685547,3.77734 l 184.000003,64 a 4.0004,4.0004 0 0 0 0.0723,0.002 4.0004,4.0004 0 0 0 1.24219,0.0215 4.0004,4.0004 0 0 0 1.24219,-0.0215 4.0004,4.0004 0 0 0 0.0723,-0.002 l 184,-64 A 4.0004,4.0004 0 0 0 444,376 V 136 a 4.0004,4.0004 0 0 0 -0.12305,-0.37305 4.0004,4.0004 0 0 0 -0.51172,-1.55664 4.0004,4.0004 0 0 0 -0.29687,-0.55078 4.0004,4.0004 0 0 0 -1.75391,-1.29687 l -184,-64.000004 a 4.0004,4.0004 0 0 0 -2.6289,0 z M 256,76.234375 427.82617,136 256,195.76562 84.173828,136 Z M 76,141.625 l 110,38.26172 66,22.95703 V 434.375 L 76,373.15625 Z m 360,0 V 373.15625 L 260,434.375 V 202.84375 l 66,-22.95703 z" /><path
           style="fill:none;stroke:#3f494b;stroke-width:8;stroke-linecap:butt;stroke-linejoin:round;stroke-dasharray:none;stroke-opacity:1"
           d="m 140,112 184,64"
           id="path329" /><path
           style="fill:none;stroke:#3f494b;stroke-width:8;stroke-linecap:butt;stroke-linejoin:round;stroke-dasharray:none;stroke-opacity:1"
           d="m 192,94 184,64"
           id="path331" /><path
           style="fill:none;stroke:#3f494b;stroke-width:8;stroke-linecap:butt;stroke-linejoin:round;stroke-dasharray:none;stroke-opacity:1"
           d="m 320,176 v 68 l 56,-20 v -64"
           id="path333" /><path
           style="fill:none;stroke:#3f494b;stroke-width:8;stroke-linecap:round;stroke-linejoin:round;stroke-dasharray:none;stroke-opacity:1"
           d="m 280,366 56,-20 v 40 l -56,20 z"
           id="path335" /><path
           style="fill:none;stroke:#3f494b;stroke-width:8;stroke-linecap:round;stroke-linejoin:miter;stroke-dasharray:none;stroke-opacity:1"
           d="M 128,358.81875 98,348"
           id="path337" /></g></g></g><path
     style="fill:#000000;stroke:none;stroke-width:1px;stroke-linecap:butt;stroke-linejoin:miter;stroke-opacity:1;fill-opacity:1"
     d="m 279,398 -13,-14 v 28 z"
     id="path2931" /><path
     style="fill:none;stroke:#000000;stroke-width:6;stroke-linecap:butt;stroke-linejoin:miter;stroke-dasharray:24,6;stroke-opacity:1;stroke-dashoffset:0"
     d="m 232,112 h 184 a 14,14 45 0 1 14,14 v 115 a 14,14 135 0 1 -14,14 H 98 a 14,14 135 0 0 -14,14 v 115 a 14,14 45 0 0 14,14 l 168,0"
     id="path3721" /></svg>
